<?xml version="1.0" encoding="UTF-8" standalone="no"?>
<svg
   xmlns:dc="http://purl.org/dc/elements/1.1/"
   xmlns:cc="http://creativecommons.org/ns#"
   xmlns:rdf="http://www.w3.org/1999/02/22-rdf-syntax-ns#"
   xmlns:svg="http://www.w3.org/2000/svg"
   xmlns="http://www.w3.org/2000/svg"
   style="fill:none"
   id="svg6"
   version="1.1"
   height="45"
   width="128">
  <metadata
     id="metadata12">
    <rdf:RDF>
      <cc:Work
         rdf:about="">
        <dc:format>image/svg+xml</dc:format>
        <dc:type
           rdf:resource="http://purl.org/dc/dcmitype/StillImage" />
        <dc:title></dc:title>
      </cc:Work>
    </rdf:RDF>
  </metadata>
  <defs
     id="defs10" />
  <path
     style="fill:#000000"
     id="path2"
     d="m 117.9415,35.1875 c 2.326,0 3.975,-0.423 5.201,-1.311 v -4.103 c -1.268,0.889 -2.791,1.438 -4.905,1.438 -3.595,0 -5.075,-2.79 -5.075,-7.19 0,-4.609 1.818,-6.977 5.117,-6.977 1.945,0 3.848,0.677 4.863,1.311 v -4.271 c -1.057,-0.592 -2.918,-1.015 -5.413,-1.015 -6.428,0 -9.769,4.61 -9.769,11.08 0,7.105 3.256,11.038 9.981,11.038 z m -31.464,-1.861 v -4.102 c -1.565,1.057 -4.187,1.987 -6.64,1.987 -3.68,0 -5.075,-1.734 -5.286,-5.286 h 12.137 v -2.664 c 0,-7.401 -3.256,-10.192 -8.289,-10.192 -6.132,0 -9.05,4.694 -9.05,11.122 0,7.4 3.637,10.996 10.065,10.996 3.214,0 5.582,-0.846 7.063,-1.861 z m -46.097,-19.835 v 8.415 h -6.724 v -8.415 h -5.032 v 21.272 h 5.032 v -8.881 h 6.724 v 8.88 h 5.034 v -21.269 h -5.033 z m 27.744,17.297 h -2.242 v -17.296 h -14.675 v 1.818 c 0,5.202 -0.339,11.926 -2.115,15.478 h -1.565 v 8.839 h 4.652 v -4.863 h 11.292 v 4.863 h 4.652 v -8.839 z m 34.424,3.976 h 5.709 l -8.077,-11.461 7.104,-9.811 h -5.074 l -7.105,9.811 v -9.811 h -5.033 v 21.272 h 5.033 v -10.446 z m -24.232,-17.72 c 2.495,0 3.256,2.072 3.256,4.736 v 0.423 h -7.02 c 0.127,-3.383 1.353,-5.159 3.764,-5.159 z m -17.467,13.744 h -7.105 c 1.396,-3.214 1.776,-9.008 1.776,-12.687 v -0.634 h 5.329 z" />
  <path
     style="fill:#fc3f1d"
     id="path4"
     d="m 24.3945,34.7635 h -5.116 V 9.3475 h -2.284 c -4.187,0 -6.386,2.114 -6.386,5.244 0,3.552 1.523,5.202 4.652,7.316 l 2.58,1.734 -7.443,11.122 h -5.54 l 6.682,-9.938 c -3.849,-2.749 -6.006,-5.413 -6.006,-9.938 0,-5.667 3.933,-9.515 11.419,-9.515 h 7.443 v 29.391 z" />
</svg>
